<?xml version="1.0" encoding="utf-8" ?>
<svg xmlns="http://www.w3.org/2000/svg" xmlns:xlink="http://www.w3.org/1999/xlink" width="1024" height="1024">
	<path fill="#FEFEFE" d="M-0 -0L1024 0L1024 1024L-0 1024L0 -0Z"/>
	<path fill="#020217" d="M510.585 72.4942C512.084 72.3122 513.033 72.499 514.447 72.9658L567.594 91.5158L704.463 138.812L802.973 172.301L802.929 326.012L805.75 324.668C821.231 318.243 835.58 327.02 845.465 338.719C846.299 339.706 849.767 344.632 850.64 344.941C851.516 345.252 854.012 344.952 855.026 344.956L867.87 345.048C870.373 345.077 873.115 344.879 875.448 345.929C880.924 348.394 884.142 356.927 886.873 362.034C895.571 378.305 902.748 394.371 908.902 411.797C914.964 411.425 925.18 410.502 930.695 412.797C938.351 415.984 943.562 448.775 944.961 457.49C945.129 458.535 945.776 465.121 946.217 465.582C946.547 465.926 947.171 465.586 947.647 465.589L961.897 465.692C965.356 465.729 969.6 465.28 972.386 467.685C973.922 469.011 974.847 470.727 975.006 472.75C975.372 477.407 975.058 482.318 975.043 487.008L975.012 512.366L974.974 535.947C974.969 539.972 975.286 544.249 974.908 548.25C974.746 549.961 974.071 551.628 972.878 552.881C970.259 555.629 966.316 554.991 962.855 555.011C957.55 555.042 951.964 554.651 946.691 555.049C946.575 555.058 945.652 555.201 945.612 555.261C944.961 556.232 944.627 562.307 944.385 563.818C943.041 572.186 938.574 598.628 933.379 604.008C932.434 604.987 931.265 605.963 929.935 606.342C927.913 606.918 925.417 606.75 923.322 606.781L910.206 606.912C904.816 623.384 898.021 642.539 885.801 655.35C879.315 662.149 871.123 667.756 861.735 669.406C857.32 670.182 852.543 670.032 848.063 670.15L841.969 676.738C851.489 680.523 861.681 682.759 871.381 686.178C903.686 697.563 935.315 710.687 964.354 729.048C944.487 732.229 924.341 738.973 905.644 746.264C892.613 751.346 879.746 756.686 867.848 764.117C870.015 768.331 871.651 772.84 873.584 777.173C885.573 804.041 893.868 832.197 901.38 860.583C856.078 832.224 805.168 811.621 754.107 796.226L722.091 787.599C711.889 799.949 700.856 811.417 689.55 822.754C664.403 847.968 637.482 870.913 608.851 892.089L586.847 907.51C568.79 920.234 549.508 931.617 530.169 942.25C525.837 944.632 521.54 947.085 517.039 949.138C515.071 950.036 513.245 951.135 511.023 950.75C507.547 949.843 503.916 947.669 500.713 946.015L477.153 932.828C428.772 904.557 383.12 869.809 342.949 830.731L313.37 800.231L301.427 787.25C287.147 790.394 273.015 794.669 259.037 798.967C228.526 808.35 198.748 819.57 170 833.503L119.479 860.73C128.978 827.184 140.118 794.195 156.454 763.269C150.663 759.672 144.058 756.846 137.853 754.016C113.382 742.856 86.8153 733.795 60.3206 729.007L80.2177 717.233C113.399 699.384 148.083 686.543 184.403 676.64C180.667 673.922 178.133 669.892 174.59 667.198C173.876 666.655 170.934 666.932 170.036 666.929C165.006 666.912 158.814 667.52 153.93 666.206C149.887 665.118 145.993 662.815 142.758 660.199C129.607 649.567 122.76 631.725 117.637 616.143L115.325 608.981C115.199 608.587 114.902 607.17 114.68 606.959C114.661 606.941 112.88 606.939 112.775 606.938C103.367 606.809 94.1268 607.468 88.9201 597.902C86.6846 593.795 85.7145 588.988 84.6634 584.475L80.9809 567.167L79.4563 557.467C79.3963 557.027 79.2431 554.74 79.0677 554.49C78.9654 554.344 78.7109 554.48 78.5325 554.475L63.0055 554.314C61.0169 554.308 57.5819 554.602 55.75 553.894C55.1327 553.655 54.3695 553.059 53.9109 552.581C52.1639 550.759 51.5993 549.064 51.5113 546.626L51.3789 498.647C51.3541 489.609 50.392 479.695 51.3638 470.751C51.5432 469.1 51.887 467.952 53.0649 466.75C57.9771 461.736 71.3465 464.602 78.1346 464.17C80.0799 464.046 79.5749 461.37 79.7797 459.676C81.0787 448.929 83.6493 438.179 86.5027 427.75C87.6439 423.579 88.3892 418.757 91.6176 415.62C96.9553 410.434 107.49 411.893 114.462 411.774C116.078 408.721 116.945 404.901 118.135 401.63L126.068 381.521L137.076 358.989C138.833 355.716 140.545 351.901 142.977 349.099C144.209 347.68 145.707 346.719 147.472 346.091C149.417 345.399 151.647 345.598 153.684 345.588L165.709 345.578C167.3 345.581 173.095 346.183 174.287 345.607C174.781 345.368 176.624 342.349 177.092 341.75C182.177 335.245 187.942 329.445 195.771 326.435C205.224 322.799 212.644 325.15 221.446 329.033L221.38 173.3L510.585 72.4942Z"/>
	<path fill="#4C4359" d="M328.889 575.546C328.972 569.767 328.505 562.304 330.132 556.781L331.536 575.483L328.889 575.546Z"/>
	<path fill="#585A7F" d="M345.41 575.49C345.813 569.195 345.646 562.384 347.129 556.24C348.465 562.555 348.345 569.199 348.576 575.631L348.504 575.847C347.422 575.444 346.637 575.661 345.528 575.835L345.41 575.49Z"/>
	<path fill="#A5AFCF" d="M67.0697 533.895L78.6478 533.957L78.8542 538.75C76.9057 540.014 70.3425 539.19 67.75 539.151C66.9268 537.558 67.1287 535.67 67.0697 533.895Z"/>
	<path fill="#A5AFCF" d="M67.3614 486.109L67.5363 480.17L78.6634 480.286L78.5014 486.22L67.3614 486.109Z"/>
	<path fill="#FEFEFE" d="M93.4511 498.47L93.75 503.65L94.3397 503.322L94.9146 503.111C94.047 518.227 95.0158 533.005 96.8557 548.018L95.7617 548.467C94.1876 539.724 93.8092 530.608 93.3408 521.75C92.9386 514.144 92.3946 506.031 93.4511 498.47Z"/>
	<path fill="#FEFEFE" d="M946.248 486.543L945.735 480.646L957.276 480.75C958.462 482.053 957.961 484.769 957.962 486.549L946.248 486.543Z"/>
	<path fill="#8D92BA" d="M945.958 533.145C949.866 533.079 954.077 532.677 957.953 533.066L957.832 539.012L944.994 539.494L945.958 533.145Z"/>
	<path fill="#FEFEFE" d="M96.8557 548.018L100.683 569.001C101.389 572.072 102.004 575.706 103.56 578.467C104.966 579.321 106.694 579.11 108.289 579.128L110.762 590.485L103.384 590.592L95.7617 548.467L96.8557 548.018Z"/>
	<path fill="#BE550F" d="M287.541 574.992L287.687 544.538L294.021 544.514L293.815 571.35C293.782 576.009 294.128 580.992 293.615 585.611C293.296 583.033 294.344 576.992 293 575.045L287.541 574.992Z"/>
	<path fill="#BE550F" d="M729.791 574.358L729.704 541.25C730.98 540.041 733.247 540.491 735 540.488C736.362 542.198 735.54 569.992 735.529 574.432L729.791 574.358Z"/>
	<path fill="#FEFEFE" d="M93.4511 498.47C93.4002 487.709 94.722 476.626 96.2363 465.984C98.0314 453.369 100.22 440.92 103.478 428.594L111.65 428.505L109.025 439.941L104.75 440.016C99.5579 446.867 95.7336 491.514 94.9146 503.111L94.3397 503.322L93.75 503.65L93.4511 498.47Z"/>
	<path fill="#4C4359" d="M351.406 365.745L351.853 365.918C355.004 375.191 356.404 385.462 358.325 395.062C359.543 401.15 361.376 407.647 361.867 413.823L350.216 405.746L349.95 405.433C350.966 403.528 350.441 399.069 350.493 396.75L350.9 378.036C350.953 374.011 350.684 369.692 351.406 365.745Z"/>
	<path fill="#121C3B" d="M467.045 245.508L488.395 238.747L487.184 258.971C483.677 259.906 479.496 261.608 475.93 261.915C472.927 256.665 470.499 250.401 467.045 245.508Z"/>
	<path fill="#121C3B" d="M534.634 239.281L559.543 246.349C557.287 251.943 553.735 257.192 550.645 262.362L536.05 258.729L534.634 239.281Z"/>
	<path fill="#121C3B" d="M589.433 263.508L614.898 277.068L596.378 290.021C594.766 289.051 593.381 287.243 592.064 285.891C589.304 283.057 586.615 280.164 583.478 277.737L582.881 277.282C584.831 272.757 586.877 267.692 589.433 263.508Z"/>
	<path fill="#121C3B" d="M946.248 486.543L957.962 486.549L957.953 533.066C954.077 532.677 949.866 533.079 945.958 533.145C946.319 529.009 947.12 524.888 947.362 520.747C947.775 513.667 947.624 506.464 947.432 499.378C947.319 495.225 947.461 490.521 946.248 486.543Z"/>
	<path fill="#FEFEFE" d="M913.743 437.495L911.696 428.373L921.203 428.431C925.869 447.646 929.831 467.308 931.406 487.054C934.205 522.126 929.542 556.566 921.058 590.568L912.148 589.933L914.288 581.421L919.71 581.11C921.479 576.819 922.35 572.01 923.338 567.487L927.827 542.5C931.956 512.962 929.983 484.145 924.045 455C922.914 449.451 922.111 441.816 918.636 437.25C917.013 436.72 915.38 437.208 913.743 437.495Z"/>
	<path fill="#121C3B" d="M67.3614 486.109L78.5014 486.22L78.6478 533.957L67.0697 533.895L66.6256 503.623C66.6727 497.897 66.439 491.757 67.3614 486.109Z"/>
	<path fill="#060D2D" d="M350.216 405.746L361.867 413.823L369.218 459.107L349.038 459.543L350.216 405.746Z"/>
	<path fill="#4C4359" d="M94.9146 503.111C95.7336 491.514 99.5579 446.867 104.75 440.016L109.025 439.941C105.036 456.992 103.357 474.197 102.475 491.652C101.009 520.669 102.23 550.657 108.289 579.128C106.694 579.11 104.966 579.321 103.56 578.467C102.004 575.706 101.389 572.072 100.683 569.001L96.8557 548.018C95.0158 533.005 94.047 518.227 94.9146 503.111Z"/>
	<path fill="#AD9874" d="M815.12 488.764C815.535 491.844 815.543 494.798 815.491 497.896L653.415 497.776L653.852 492.128L795.864 492.566L809.802 492.719C810.634 492.746 813.665 493.132 814.25 492.88C814.56 492.747 814.777 492.46 815.04 492.25L815.12 488.764Z"/>
	<path fill="#AA3419" d="M244.021 575.039L243.904 544.417L277.672 544.52L277.568 575.027L244.021 575.039Z"/>
	<path fill="#121C3B" d="M655.249 300.829L655.282 301.834C655.465 304.255 657.618 306.993 658.813 309.073L666.895 323.656C655.573 326.523 646.616 333.874 637.911 341.304C640.176 345.618 643.653 350.389 644.893 355.083L623.744 348.249C622.04 344.304 620.141 340.487 618.781 336.398C618.698 336.149 618.018 334.401 618.068 334.17C618.128 333.89 620.444 331.994 620.77 331.7C628.308 324.906 636.801 318.802 644.731 312.434C647.71 310.041 652.766 306.62 654.75 303.381C655.036 302.915 655.132 301.431 655.249 300.829Z"/>
	<path fill="#060D2D" d="M649.945 576.253C649.79 574.217 649.74 573.189 650.255 571.25C650.595 569.967 650.385 568.08 650.255 566.75L650.755 566.25C650.755 564.996 650.368 563.137 651.255 562.25L651.293 561.234C651.382 559.149 651.89 557.015 652.255 555L652.255 553.75L652.75 553.255C653.109 555.002 652.891 555.608 652.5 557.25C652.124 558.826 652.975 560.037 652 561.5C651.968 563.119 651.867 564.211 651.5 565.75C651.124 567.326 651.975 568.537 651 570C650.97 571.498 651.098 572.855 650.5 574.25L650.625 575.253C658.516 575.798 666.589 574.79 674.5 575.378L689.5 575.249L689.5 542.25L688.93 542.148C687.106 541.784 689.604 542.295 687.375 541.625C685.326 541.01 681.376 541.496 679.191 541.494L654.008 541.5C654.005 543.333 654.485 546.522 653.5 548L653.5 552.25L652.503 552.375C652.159 551.162 652.407 550.869 652.644 549.706C653.13 547.326 652.728 543.954 652.691 541.5L648.25 541.5L648.054 541.163L715.397 540.983L714.734 583.344C714.684 587.228 715.74 595.501 713.967 598.824C713.427 593.821 714.634 588.325 713.878 583.5C713.538 581.334 713.747 578.945 713.755 576.745L690.501 577.248C690.517 584.673 691.366 593.182 690.244 600.468L690.189 576.332L649.945 576.253Z"/>
	<path fill="#4C4359" d="M913.743 437.495C915.38 437.208 917.013 436.72 918.636 437.25C922.111 441.816 922.914 449.451 924.045 455C929.983 484.145 931.956 512.962 927.827 542.5L923.338 567.487C922.35 572.01 921.479 576.819 919.71 581.11L914.288 581.421C915.513 574.082 917.595 566.887 918.596 559.483C922.184 532.96 923.002 504.379 920.01 477.75L913.743 437.495Z"/>
	<path fill="#121C3B" d="M332.06 392.036L332.424 392.117L349.95 405.433L350.216 405.746L349.038 459.543L330.516 459.592L332.06 392.036Z"/>
	<path fill="#881A12" d="M196.558 693.815L231.516 686.785L252.017 721.124L234.889 732.196C223.428 718.144 209.863 706.064 196.558 693.815Z"/>
	<path fill="#FEFEFE" d="M162.382 650.614C159.635 650.489 156.834 649.979 154.488 648.446C149.22 645.006 145.689 638.675 142.93 633.227C136.3 620.132 131.725 605.495 128.284 591.25C112.542 526.068 114.83 451.669 141.047 389.439C145.102 379.815 149.451 370.144 154.89 361.216C158.77 360.839 163.981 360.907 167.81 361.676L166.848 363.472C165.139 365.149 161.318 370.048 159.226 370.715C158.03 371.096 156.225 371.01 154.956 371.057C153.436 372.91 152.428 375.437 151.347 377.572L145.204 390.739C130.88 423.945 123.918 460.234 122.32 496.269C121.7 510.242 121.672 524.628 123.054 538.561C126.215 570.437 131.989 601.616 147.334 630.137C149.361 633.906 151.64 637.474 154.304 640.825C156.624 643.743 160.974 647.33 162.382 650.614Z"/>
	<path fill="#FEFEFE" d="M860.809 370.297L856.356 360.994L866.4 360.863C908.71 428.227 914.554 511.28 897.147 587.544C894.792 597.863 891.528 607.744 887.639 617.579C882.764 629.907 877.422 642.724 865.726 650.11C862.909 651.889 860.177 652.688 856.97 653.38L862.054 643.313C864.736 641.773 867.143 639.59 869.293 637.378C879.408 626.975 885.194 611.354 889.432 597.705C899.238 566.122 903.802 533.113 903.038 500.042C902.766 488.276 901.127 476.661 899.293 465.054C894.97 437.688 887.976 411.127 875.495 386.253C873.234 381.747 869.758 374.032 865.641 370.85C864.314 369.825 862.387 370.186 860.809 370.297Z"/>
	<path fill="#881A12" d="M769.462 780.6C765.996 779.004 761.616 778.076 757.927 777.022L736.92 771.149L761.67 737.745L808.979 753.276L808.246 753.749C804.22 756.31 799.765 758.386 795.633 760.818C786.165 766.391 777.446 773.056 769.462 780.6Z"/>
	<path fill="#ED6414" d="M167.769 813.701L152.183 821.072L179.917 755.464C157.541 742.542 135.156 731.286 110.355 723.708C118.779 718.952 128.916 715.593 137.999 712.139L138.489 713.5C136.723 716.139 133.913 717.695 132.187 720.213C153.557 729.564 174.05 739.41 193.667 752.118C186.394 767.863 178.063 783.111 172.204 799.474C170.549 804.095 168.638 808.856 167.769 813.701Z"/>
	<path fill="#881A12" d="M220.26 752.199C233.126 744.784 247.402 738.782 261.824 735.222L287.965 771.204L252.478 780.731C243.094 770.255 231.545 760.563 220.26 752.199Z"/>
	<path fill="#8D92BA" d="M209.586 514.061L209.342 504.089L375.733 504.013L377.25 514.075L209.586 514.061Z"/>
	<path fill="#ED6414" d="M894.911 715.806L908.5 721.543C909.745 722.057 912.681 722.835 913.546 723.746C897.085 729.054 881.204 735.414 865.709 743.118L842.66 755.558L861.42 796.984C864.724 804.956 868.089 812.926 870.51 821.219L855.411 813.862C852.677 805.577 849.207 797.737 845.817 789.713C842.028 780.744 837.994 771.099 832.688 762.931L832.074 761.546L829.027 752.366C849.272 737.33 872.323 726.667 894.911 715.806Z"/>
	<path fill="#881A12" d="M792.619 738.781L769.296 726.806L795.152 685.725L842.509 697.496C824.721 709.724 807.302 722.853 792.619 738.781Z"/>
	<path fill="#060D2D" d="M307.44 373.024L332.06 392.036L330.516 459.592L306.928 459.797L307.027 402.701C307.038 393.02 306.26 382.593 307.44 373.024Z"/>
	<path fill="#A5AFCF" d="M372.508 484.495L374.631 497.772L209.147 497.672L209.759 484.116C213.031 485.202 217.778 484.619 221.307 484.644L246.954 484.782L372.508 484.495Z"/>
	<path fill="#FEFEFE" d="M209.759 484.116C210.258 479.774 210.612 475.256 211.705 471.022L369.963 471.037L372.508 484.495L246.954 484.782L221.307 484.644C217.778 484.619 213.031 485.202 209.759 484.116Z"/>
	<path fill="#FEFEFE" d="M226.786 652.612L225.959 654.65C222.92 661.336 217.616 669.269 210.284 671.668C207.113 672.706 203.75 671.796 200.929 670.235C184.805 661.314 174.17 628.652 169.047 611.789C164.429 596.591 161.497 581.017 159.144 565.329C151.579 514.882 153.493 461.488 166.071 411.963C170.306 395.287 175.865 378.022 184.016 362.829C187.951 355.495 195.444 342.94 203.979 340.683C207.841 339.662 212.314 339.749 215.739 341.966C225.962 348.585 230.201 363.666 232.613 374.861L232.215 375C227.739 366.731 222.471 351.473 212.442 348.666C209.325 347.794 205.747 348.391 203.05 350.121C196.891 354.073 192.418 361.747 188.974 368C177.774 388.342 170.748 411.253 166.363 433.994L161.547 462.25C159.82 476.28 159.376 490.583 159.28 504.709C159.046 539.153 162.719 572.545 172.824 605.574C177.517 620.913 183.521 636.759 192.59 650.089C196.864 656.37 200.57 660.659 208.135 662.789C214.286 660.708 218.225 656.86 221.904 651.618C223.348 649.562 224.45 647.387 226.75 646.221L227.087 646.5L226.415 648.867C226.052 650.276 226.225 651.299 226.786 652.612Z"/>
	<path fill="#AA3419" d="M808.979 753.276L831.982 763.366L832.688 762.931C837.994 771.099 842.028 780.744 845.817 789.713C849.207 797.737 852.677 805.577 855.411 813.862L769.462 780.6C777.446 773.056 786.165 766.391 795.633 760.818C799.765 758.386 804.22 756.31 808.246 753.749L808.979 753.276Z"/>
	<path fill="#AA3419" d="M842.509 697.496C859.864 702.82 878.487 707.971 894.911 715.806C872.323 726.667 849.272 737.33 829.027 752.366L832.074 761.546C827.478 759.87 822.808 755.83 818.547 753.25L792.619 738.781C807.302 722.853 824.721 709.724 842.509 697.496Z"/>
	<path fill="#FEFEFE" d="M793.209 382.568L792.75 383.926L792.117 383.75C792.966 370.896 796.638 351.453 806.5 342.498C808.957 340.267 812.542 338.335 815.952 338.548C822.46 338.955 827.262 343.59 831.142 348.338C835.84 354.088 839.393 360.767 842.732 367.368C851.508 384.715 856.96 403.551 861.069 422.5C867.05 450.082 869.87 477.965 869.961 506.177C869.997 517.479 869.978 528.979 868.791 540.22C865.049 575.653 859.016 613.07 842.686 645.168C838.829 652.75 834.099 661.078 827.386 666.482C824.36 668.917 820.759 670.766 816.75 670.41C811.197 669.917 806.641 666.633 803.337 662.309C795.124 651.559 793.294 637.223 792.084 624.193C792.953 626.354 793.625 628.418 794.131 630.691L796.811 638.504C800.003 646.42 804.871 656.439 813.381 659.674C816.643 660.914 818.597 660.796 821.75 659.282C833.64 653.577 844.614 625.534 848.572 613.214C859.397 579.512 863.469 544.377 863.491 509.093C863.506 485.433 861.883 462.442 857.802 439.104C853.567 414.883 847.144 390.675 835.821 368.741C832.062 361.46 825.772 349.427 817.379 346.976C814.973 346.273 812.809 346.451 810.63 347.752C800.29 353.928 795.774 371.753 793.209 382.568Z"/>
	<path fill="#7E7D8E" d="M209.586 514.061L377.25 514.075L379.683 532.602L212.147 532.512C210.35 526.674 210.108 520.123 209.586 514.061Z"/>
	<path fill="#FEFEFE" d="M653.852 492.128L656.187 470.372L769.5 470.654L798.608 470.538C802.494 470.522 807.665 469.873 811.361 470.697C813.099 476.67 814.424 482.576 815.12 488.764L815.04 492.25C814.777 492.46 814.56 492.747 814.25 492.88C813.665 493.132 810.634 492.746 809.802 492.719L795.864 492.566L653.852 492.128Z"/>
	<path fill="#4C4359" d="M860.809 370.297C862.387 370.186 864.314 369.825 865.641 370.85C869.758 374.032 873.234 381.747 875.495 386.253C887.976 411.127 894.97 437.688 899.293 465.054C901.127 476.661 902.766 488.276 903.038 500.042C903.802 533.113 899.238 566.122 889.432 597.705C885.194 611.354 879.408 626.975 869.293 637.378C867.143 639.59 864.736 641.773 862.054 643.313L866.198 632.858C873.581 613.395 878.014 593.223 881.298 572.726C887.904 531.493 888.693 489.496 882.636 448.15C878.686 421.195 872.022 395.179 860.809 370.297Z"/>
	<path fill="#4C4359" d="M162.382 650.614C160.974 647.33 156.624 643.743 154.304 640.825C151.64 637.474 149.361 633.906 147.334 630.137C131.989 601.616 126.215 570.437 123.054 538.561C121.672 524.628 121.7 510.242 122.32 496.269C123.918 460.234 130.88 423.945 145.204 390.739L151.347 377.572C152.428 375.437 153.436 372.91 154.956 371.057C156.225 371.01 158.03 371.096 159.226 370.715C161.318 370.048 165.139 365.149 166.848 363.472L166.713 363.963C165.355 368.602 162.38 373.249 160.497 377.785C156.602 387.169 153.456 396.918 150.759 406.709C131.712 475.841 132.786 549.571 153.742 618.096C155.884 625.099 158.143 632.249 161.033 638.982C162.723 642.919 165.26 646.747 166.644 650.746C165.224 650.773 163.782 650.886 162.382 650.614Z"/>
	<path fill="#7E7D8E" d="M651.922 506.437L815.513 506.585L812.08 531.534L648.93 532.436L651.922 506.437Z"/>
	<path fill="#4C4359" d="M426.931 245.461L443.906 276.477L427.788 289.223L402.179 272.728C399.969 271.331 396.718 268.657 394.25 268.019C389.352 272.65 385.291 277.93 380.981 283.09C376.725 288.186 371.809 293.385 368.891 299.387C371.812 304.136 376.04 307.87 380.057 311.678L394.613 325.535C395.535 326.414 399.868 329.936 400.116 330.828C400.449 332.024 397.963 343.764 397.538 345.604C397.4 346.457 397.425 348.078 396.712 348.574C395.213 349.616 393.099 350.185 391.398 350.847L381.38 354.869L361.5 362.476C358.576 363.523 354.42 364.267 351.853 365.918L351.406 365.745C351.006 362.538 351.345 358.99 351.374 355.735L351.656 335.05L351.983 277.358L426.931 245.461Z"/>
	<path fill="#585A7F" d="M381.38 354.869L381.136 354.545C378.991 352.121 377.538 349.228 376.198 346.293L379.532 341.592C381.969 338.442 385.644 332.558 389.75 332.043C393.016 334.346 395.101 341.725 397.318 345.261L397.538 345.604C397.4 346.457 397.425 348.078 396.712 348.574C395.213 349.616 393.099 350.185 391.398 350.847L381.38 354.869Z"/>
	<path fill="#EE9322" d="M729.791 574.358L735.529 574.432L735.51 629.08L735.504 644.401C735.505 646.943 735.816 649.663 735.513 652.175C735.324 653.737 734.503 654.946 733.689 656.245L713.255 690.276C692.395 721.599 668.302 751.224 640.96 777.12C617.225 799.599 590.53 819.259 562.687 836.282L526.495 856.055C522.234 858.159 517.411 860.959 512.846 862.286C511.151 862.778 505.505 859.688 503.784 858.912C478.864 847.673 455.724 833.323 433.384 817.665C422.791 810.24 413.012 801.946 403.227 793.508C369.401 764.335 339.358 730.495 314.57 693.312L296.273 664.145L288.45 650.074C287.877 649.141 287.487 648.318 287.377 647.212C286.656 639.939 287.385 631.793 287.406 624.428L287.541 574.992L293 575.045C294.344 576.992 293.296 583.033 293.615 585.611L293.485 646.918C304.117 663.999 313.577 681.763 325.208 698.25C357.226 743.638 396.782 783.619 442.147 815.664C463.689 830.881 487.59 845.008 512.099 854.91C529.63 847.899 546.709 838.522 562.76 828.621C576.359 820.232 590.025 811.413 602.679 801.65C619.042 789.027 634.165 774.762 648.683 760.086C676.588 731.877 699.604 700.884 720.323 667.165L726.675 656.988C727.635 655.441 728.924 653.749 729.458 652C730.06 650.027 729.76 647.427 729.766 645.353L729.806 631.781L729.791 574.358Z"/>
	<path fill="#EE9322" d="M659.382 156.753L751.686 188.771C755.159 201.075 757.666 215.508 758.269 228.288C758.801 239.551 758.106 251.087 758.066 262.377L757.988 312.68L758.071 461.138L745.624 461.09L745.903 218.187L714.398 206.814C713.048 202.086 707.927 197.616 704.513 194.131C695.684 185.122 686.363 176.354 676.312 168.701C670.833 164.528 664.7 160.991 659.382 156.753Z"/>
	<path fill="#EE9322" d="M243.807 268.716C246.855 271.061 252.862 274.649 254.81 277.839C255.656 285.546 257.846 293.519 259.894 301C263.193 313.05 266.939 324.84 271.431 336.5C273.355 341.497 275.159 347.047 277.943 351.613L277.649 459.945L244.108 459.935L243.807 268.716Z"/>
	<path fill="#EE9322" d="M512.442 147.004L735.472 225.875L735.62 425.891L735.581 454.171C735.579 455.251 735.984 459.435 735.572 460.25C735.435 460.521 735.191 460.723 735 460.96L730.5 460.957C730.306 460.722 730.058 460.521 729.919 460.25C729.39 459.219 729.879 431.278 729.867 426.875L729.612 230.349C727.061 228.385 722.115 227.298 719.026 226.122L682.854 212.889L512.506 152.882L293.548 229.695L293.761 459.764L287.966 459.617C286.859 457.032 287.58 419.92 287.575 413.867L287.877 225.974L512.442 147.004Z"/>
	<path fill="#AA3419" d="M137.999 712.139L138.015 712.055C156.372 703.9 177.147 698.881 196.558 693.815C209.863 706.064 223.428 718.144 234.889 732.196C225.932 739.08 217.053 745.969 208.713 753.604L192.513 769.813C201.746 764.141 210.485 756.938 220.26 752.199C231.545 760.563 243.094 770.255 252.478 780.731L167.769 813.701C168.638 808.856 170.549 804.095 172.204 799.474C178.063 783.111 186.394 767.863 193.667 752.118C174.05 739.41 153.557 729.564 132.187 720.213C133.913 717.695 136.723 716.139 138.489 713.5L137.999 712.139Z"/>
	<defs>
		<linearGradient id="gradient_0" gradientUnits="userSpaceOnUse" x1="441.28473" y1="570.79102" x2="655.53485" y2="368.39056">
			<stop offset="0" stop-color="#787F9B"/>
			<stop offset="1" stop-color="#B3B9CA"/>
		</linearGradient>
	</defs>
	<path fill="url(#gradient_0)" d="M510.945 318.497C515.141 317.915 557.636 334.437 564.583 337.073L658.612 370.859L651.339 430.776L649.588 446.565L646.073 478.05L634.223 565.487L632.868 573.966C632.652 575.5 632.654 577.325 631.845 578.648L510.758 643.51L509.51 643.055L510.35 642.441C510.332 638.362 510.598 634.051 510.023 630.016C511.688 630.143 573.455 595.2 579.271 592.04L616.686 572.089L638.509 437.92L638.612 437.472C638.153 434.131 639.76 428.579 640.234 425.162L646.963 378.531C644.288 377.227 641.144 376.512 638.313 375.56L623.881 370.398L552.468 344.268C549.665 343.839 545.865 341.804 543.137 340.73L521.746 332.748C518.224 331.523 514.606 329.99 510.924 329.357L510.945 318.497Z"/>
	<path fill="#FEFEFE" d="M509.51 643.055C502.075 639.398 495.173 634.49 487.98 630.367L429.634 596.695C418.08 589.96 406.038 582.238 393.494 577.608C393.134 554.447 389.299 530.413 386.041 507.5L363.276 372.556C364.496 371.343 367.183 370.854 368.875 370.27L383.901 364.875L470.574 332.597C483.717 327.817 497.372 321.761 510.945 318.497L510.924 329.357L510.002 329.78L376.972 381.32L399.656 505.673L404.901 546.379L406.48 561.119C406.732 563.461 406.735 566.398 407.551 568.591L473.713 607.697L496.599 621.148C500.762 623.597 506.867 626.363 510.023 630.016C510.598 634.051 510.332 638.362 510.35 642.441L509.51 643.055Z"/>
	<path fill="#FEFEFE" d="M243.807 268.716L243.485 188.484L511.744 95.1866C517.48 96.5058 523.056 98.9208 528.613 100.856L557.028 110.612L669.728 149.817L755.699 179.582L772.75 185.49C775.945 186.601 779.604 187.576 782.459 189.369C779.426 190.024 775.633 189.691 772.498 189.679C765.523 189.654 758.624 189.528 751.686 188.771L659.382 156.753C650.278 152.848 640.296 150.21 630.915 146.922L561.5 122.953L520.747 108.902C518.356 108.127 514.678 106.302 512.287 106.097C511.265 106.01 508.53 107.097 507.458 107.445L490.447 113.546L448.084 128.58L317.97 173.844L258.559 194.273L258.536 278.75L257.75 279.438L254.81 277.839C252.862 274.649 246.855 271.061 243.807 268.716Z"/>
	<path fill="#AA3419" d="M751.686 188.771C758.624 189.528 765.523 189.654 772.498 189.679C775.633 189.691 779.426 190.024 782.459 189.369C783.511 194.836 782.731 201.838 782.722 207.458L782.683 248.285L782.96 401.415L782.932 445.794L782.95 456.701C782.952 458.23 783.216 460.13 782.659 461.559L758.071 461.138L757.988 312.68L758.066 262.377C758.106 251.087 758.801 239.551 758.269 228.288C757.666 215.508 755.159 201.075 751.686 188.771Z"/>
	<path fill="#121C3B" d="M505.432 825.062L506.237 825.015L506.255 827.75C505.228 828.777 505.751 835.884 505.75 837.755C504.499 837.532 503.391 837.215 502.249 836.645L493.998 832.503C492.846 831.939 491.902 831.189 490.78 830.629L487 828.755L483.5 826.755L481.498 825.503L467.25 817.271L465 815.755C463.702 814.823 462.291 814.199 461 813.255C459.941 812.481 458.832 811.992 457.75 811.271L453.25 808.255C451.319 807.05 449.619 805.549 447.75 804.255C447.049 803.769 446.422 803.455 445.749 802.894L443.75 801.255C443.043 800.774 442.423 800.456 441.749 799.894L432.951 793.037C389.974 761.487 354.253 719.254 324.9 674.997C319.025 666.139 312.564 657.144 307.824 647.631C305.714 643.398 306.146 638.946 306.122 634.329L306.172 617.861L306.716 575.288L328.427 575.487L328.889 575.546L331.536 575.483C336.142 575.67 340.823 576.058 345.41 575.49L345.528 575.835L346.057 629.911L347.065 675.634L347.137 676.004C348.825 679.837 351.501 683.594 353.812 687.093L368.22 707.248C381.788 724.816 395.897 742.175 411.755 757.757C429.083 774.784 448.902 790.171 469.2 803.491L479.499 809.91C481.462 811.09 483.941 812.296 485.455 814C486.73 815.434 488.422 815.817 490.023 816.727C494.98 819.544 500.764 821.898 505.432 825.062Z"/>
	<defs>
		<linearGradient id="gradient_1" gradientUnits="userSpaceOnUse" x1="333.65036" y1="610.47931" x2="326.63397" y2="609.92456">
			<stop offset="0" stop-color="#4D537D"/>
			<stop offset="1" stop-color="#70719A"/>
		</linearGradient>
	</defs>
	<path fill="url(#gradient_1)" d="M328.889 575.546L331.536 575.483C332.244 577.461 332.032 579.573 332.038 581.651L332.041 593.144L332.02 629.475L332.122 644.038C332.143 646.538 332.442 649.21 331.729 651.623C330.659 649.578 328.838 646.818 328.555 644.53C327.694 637.57 328.369 629.54 328.344 622.476L328.427 575.487L328.889 575.546Z"/>
	<path fill="#4C4359" d="M331.536 575.483C336.142 575.67 340.823 576.058 345.41 575.49L345.528 575.835L346.057 629.911L347.065 675.634C344.178 672.32 341.878 668.321 339.544 664.603C336.846 660.305 334.099 656.125 331.729 651.623C332.442 649.21 332.143 646.538 332.122 644.038L332.02 629.475L332.041 593.144L332.038 581.651C332.032 579.573 332.244 577.461 331.536 575.483Z"/>
	<path fill="#4C4359" d="M226.786 652.612C226.225 651.299 226.052 650.276 226.415 648.867L227.087 646.5L226.75 646.221C224.45 647.387 223.348 649.562 221.904 651.618C218.225 656.86 214.286 660.708 208.135 662.789C200.57 660.659 196.864 656.37 192.59 650.089C183.521 636.759 177.517 620.913 172.824 605.574C162.719 572.545 159.046 539.153 159.28 504.709C159.376 490.583 159.82 476.28 161.547 462.25L166.363 433.994C170.748 411.253 177.774 388.342 188.974 368C192.418 361.747 196.891 354.073 203.05 350.121C205.747 348.391 209.325 347.794 212.442 348.666C222.471 351.473 227.739 366.731 232.215 375L232.613 374.861C233.368 376.222 233.468 377.766 233.787 379.268C234.702 383.572 235.067 388.02 235.567 392.39C232.333 388.528 227.555 378.936 222 378.578C219.672 378.428 217.729 379.521 216.149 381.147C211.406 386.024 208.599 392.808 206.049 399C199.777 414.226 196.119 429.923 193.173 446.075C188.837 469.851 186.505 494.667 187.67 518.832C189.281 552.25 195.112 587.583 207.866 618.628C209.926 623.641 212.62 630.634 216.709 634.291C218.058 635.497 220.187 636.843 222.065 636.577C225.197 636.134 228.357 631.523 229.975 628.964L237.263 615.592C236.407 624.868 234.491 633.737 231.479 642.563C230.367 645.823 228.981 649.933 226.786 652.612Z"/>
	<path fill="#4C4359" d="M793.209 382.568C795.774 371.753 800.29 353.928 810.63 347.752C812.809 346.451 814.973 346.273 817.379 346.976C825.772 349.427 832.062 361.46 835.821 368.741C847.144 390.675 853.567 414.883 857.802 439.104C861.883 462.442 863.506 485.433 863.491 509.093C863.469 544.377 859.397 579.512 848.572 613.214C844.614 625.534 833.64 653.577 821.75 659.282C818.597 660.796 816.643 660.914 813.381 659.674C804.871 656.439 800.003 646.42 796.811 638.504L794.131 630.691L794.415 630.81C797.34 631.845 801.211 633.008 804.164 631.499C811.771 627.61 815.765 611.266 817.927 603.63C828.771 565.33 831.675 524.845 829.854 485.215C828.965 465.847 827.263 446.486 823.762 427.401C821.309 414.028 818.522 398.953 811.733 387.049C809.889 383.816 807.927 380.526 804.046 379.656C799.813 378.707 796.603 380.347 793.209 382.568Z"/>
	<path fill="#121C3B" d="M427.868 200.192C431.221 198.404 434.954 197.413 438.511 196.107L462.029 187.648L491.845 176.72C497.862 174.535 504.05 172.095 510.25 170.508C511.941 170.075 513.258 170.26 514.895 170.75C536.446 177.205 557.61 185.827 578.746 193.556L592.8 198.547C595.214 199.421 598.028 200.129 600.122 201.628L621.344 208.841L675.506 227.714L703.668 238.245C707.55 239.657 711.6 241.491 715.639 242.334L715.261 461.542L704.884 461.538C704.036 462.185 662.766 462.187 657.332 462.214L664.724 401.657L665.38 401.916C667.41 402.656 670.394 402.381 672.554 402.432L689.391 402.902C689.243 407.531 688.445 413.563 689.091 418.118L689.802 418.275L690.111 422.037C690.84 416.292 690.445 410.073 690.432 404.274L690.428 374.076L690.552 264.303L598.714 226.004L599.651 204.609L599.729 204.02C598.634 202.487 596.996 202.27 595.266 201.628L532.499 179.346L517.365 173.725C516.089 173.236 513.567 171.74 512.325 171.639C510.402 171.481 506.223 173.579 504.317 174.284C499.623 176.869 493.964 178.548 489 180.593L446.523 197.629L355 233.006L327.002 243.858C320.635 246.378 314.062 249.342 307.488 251.207L307.43 242.261C320.34 239.13 332.949 233.413 345.435 228.87L387 214.496C400.496 209.68 414.13 204.221 427.868 200.192Z"/>
	<path fill="#585A7F" d="M689.091 418.118L689.802 418.275L690.111 422.037L689.957 461.443L687.75 461.393C686.258 458.467 688.736 424.426 689.091 418.118Z"/>
	<defs>
		<linearGradient id="gradient_2" gradientUnits="userSpaceOnUse" x1="602.2644" y1="360.11203" x2="418.17242" y2="242.46353">
			<stop offset="0" stop-color="#F18414"/>
			<stop offset="1" stop-color="#F7C036"/>
		</linearGradient>
	</defs>
	<path fill="url(#gradient_2)" d="M499.558 221.605L523.638 221.557L527.09 268.605C537.175 269.419 546.167 271.667 555.894 274.311L575.487 235.706C580.278 237.981 584.92 240.639 589.237 243.72L571.037 278.325C571.714 280.267 575.181 283.043 576.75 284.622L594.753 303.024L629.339 280.706L642.774 299.747C635.832 306.298 628.093 312.129 620.66 318.105C618.232 320.058 613.746 322.795 612.078 325.374C608.004 331.671 608.146 336.232 609.243 343.238L518.34 310.405C515.458 309.646 511.954 308.726 508.986 309.318L508.25 309.48C496.253 312.063 484.212 317.354 472.645 321.512L407.472 345.67L411.217 326.074C410.382 324.75 408.649 323.82 407.398 322.881L401.329 318.009L380.95 299.528L395.815 279.936C400.322 282.08 404.451 285.321 408.531 288.175C414.957 292.671 421.281 296.998 428.31 300.517C437.602 294.832 448.458 286.354 455.063 277.72C453.879 273.182 450.591 268.309 448.388 264.088L436.462 240.979L450.448 235.204L470.79 273.907C479.37 271.101 487.33 269.433 496.331 268.982L499.558 221.605Z"/>
	<defs>
		<linearGradient id="gradient_3" gradientUnits="userSpaceOnUse" x1="561.86932" y1="284.58322" x2="462.33157" y2="375.63635">
			<stop offset="0" stop-color="#F3BE3D"/>
			<stop offset="1" stop-color="#F0CECB"/>
		</linearGradient>
	</defs>
	<path fill="url(#gradient_3)" d="M496.858 287.084C517.834 280.324 545.498 290.354 564.223 299.963C573.255 304.598 581.632 310.774 589.552 317.09C594.845 321.31 600.325 325.706 604.362 331.212C595.68 328.563 587.453 323.763 579.231 319.947C558.695 310.416 535.813 301.324 512.918 300.703C508.755 300.59 504.716 301.458 500.612 301.547C471.368 305.726 446.49 320.344 420.2 332.512C425.379 325.578 432.01 320.332 438.868 315.168C456.318 302.029 475.374 291.695 496.858 287.084Z"/>
	<defs>
		<linearGradient id="gradient_4" gradientUnits="userSpaceOnUse" x1="524.11188" y1="323.01831" x2="391.85315" y2="111.89878">
			<stop offset="0" stop-color="#ECB033"/>
			<stop offset="1" stop-color="#FDD655"/>
		</linearGradient>
	</defs>
	<path fill="url(#gradient_4)" d="M254.81 277.839L257.75 279.438L258.536 278.75L258.559 194.273L317.97 173.844L448.084 128.58L490.447 113.546L507.458 107.445C508.53 107.097 511.265 106.01 512.287 106.097C514.678 106.302 518.356 108.127 520.747 108.902L561.5 122.953L630.915 146.922C640.296 150.21 650.278 152.848 659.382 156.753C664.7 160.991 670.833 164.528 676.312 168.701C686.363 176.354 695.684 185.122 704.513 194.131C707.927 197.616 713.048 202.086 714.398 206.814L665.731 188.58L545.482 145.572C541.531 144.151 514.499 133.344 512.141 133.764C508.208 134.464 503.401 136.859 499.511 138.227L461.711 151.724L329.852 198.136L277.941 215.628L277.943 351.613C275.159 347.047 273.355 341.497 271.431 336.5C266.939 324.84 263.193 313.05 259.894 301C257.846 293.519 255.656 285.546 254.81 277.839Z"/>
	<defs>
		<linearGradient id="gradient_5" gradientUnits="userSpaceOnUse" x1="531.88904" y1="724.32397" x2="324.7796" y2="668.93646">
			<stop offset="0" stop-color="#10142E"/>
			<stop offset="1" stop-color="#474361"/>
		</linearGradient>
	</defs>
	<path fill="url(#gradient_5)" d="M348.576 575.631L349.389 575.77C352.353 576.236 355.837 575.865 358.85 575.815L376.047 575.497L379.716 594.537L381.864 607.5C382.148 608.976 382.31 611.269 382.886 612.609C383.313 613.603 387.379 615.923 388.479 616.635L507.032 693.518L506.742 797.497L506.79 816.672C506.824 818.633 507.431 822.837 506.485 824.509L505.432 825.062C500.764 821.898 494.98 819.544 490.023 816.727C488.422 815.817 486.73 815.434 485.455 814C483.941 812.296 481.462 811.09 479.499 809.91L469.2 803.491C448.902 790.171 429.083 774.784 411.755 757.757C395.897 742.175 381.788 724.816 368.22 707.248L353.812 687.093C351.501 683.594 348.825 679.837 347.137 676.004L347.065 675.634L346.057 629.911L345.528 575.835C346.637 575.661 347.422 575.444 348.504 575.847L348.576 575.631Z"/>
	<path fill="#8D92BA" d="M348.588 576.902C349.174 585.723 348.915 594.689 348.938 603.529L348.649 651.4L348.425 667.286C348.389 669.847 348.656 672.78 348.096 675.254L347.137 676.004L347.065 675.634L346.057 629.911C346.542 632.018 346.707 634.249 346.913 636.4C347.382 641.287 346.255 647.119 347.738 651.743C348.057 651.188 347.877 649.437 347.877 648.719C347.877 645.194 347.4 640.944 347.877 637.5C348.768 631.085 348.453 624.192 348.478 617.657L348.588 576.902Z"/>
	<path fill="#A5AFCF" d="M345.528 575.835C346.637 575.661 347.422 575.444 348.504 575.847L348.588 576.902L348.478 617.657C348.453 624.192 348.768 631.085 347.877 637.5C347.4 640.944 347.877 645.194 347.877 648.719C347.877 649.437 348.057 651.188 347.738 651.743C346.255 647.119 347.382 641.287 346.913 636.4C346.707 634.249 346.542 632.018 346.057 629.911L345.528 575.835Z"/>
	<path fill="#EE9322" d="M452.925 682.474L475.928 699.869L475.966 773.014L452.997 754.215L452.925 682.474Z"/>
	<path fill="#EE9322" d="M417.041 656.398L441.001 674.624L441.056 745.583L417.042 725.886L417.041 656.398Z"/>
	<defs>
		<linearGradient id="gradient_6" gradientUnits="userSpaceOnUse" x1="690.03741" y1="307.52911" x2="332.51801" y2="307.41125">
			<stop offset="0" stop-color="#393B5C"/>
			<stop offset="1" stop-color="#8386AF"/>
		</linearGradient>
	</defs>
	<path fill="url(#gradient_6)" d="M504.317 174.284C506.223 173.579 510.402 171.481 512.325 171.639C513.567 171.74 516.089 173.236 517.365 173.725L532.499 179.346L595.266 201.628C596.996 202.27 598.634 202.487 599.729 204.02L599.651 204.609L598.714 226.004L690.552 264.303L690.428 374.076L690.432 404.274C690.445 410.073 690.84 416.292 690.111 422.037L689.802 418.275L689.091 418.118C688.445 413.563 689.243 407.531 689.391 402.902L672.554 402.432C670.394 402.381 667.41 402.656 665.38 401.916L664.724 401.657L668.63 363.339L644.893 355.083C643.653 350.389 640.176 345.618 637.911 341.304C646.616 333.874 655.573 326.523 666.895 323.656L658.813 309.073C657.618 306.993 655.465 304.255 655.282 301.834L655.249 300.829C651.87 294.992 647.77 289.542 643.934 284C640.209 278.618 636.779 272.648 631.785 268.342C625.763 270.021 620.199 273.843 614.898 277.068L589.433 263.508L598.931 244.676C600.012 242.37 601.574 239.447 600.658 236.877C597.316 233.842 592.155 232.212 588.074 230.354C582.777 227.941 577.599 225.289 572.148 223.231C566.407 229.427 562.931 238.66 559.543 246.349L534.634 239.281C533.937 231.202 534.132 222.374 532.66 214.464C532.383 212.976 531.63 211.95 530.271 211.167C528.806 210.323 494.744 209.815 492.884 210.762C489.147 212.666 489.537 223.309 489.078 227.155L488.395 238.747L467.045 245.508C463.039 239.305 460.067 231.823 456.66 225.208C455.594 224.25 454.663 222.83 453.13 223.025C451.329 223.253 449.047 224.597 447.367 225.322C443.344 227.056 439.276 228.927 435.117 230.305C431.612 231.927 427.049 233.182 424.25 235.818C423.573 237.849 423.408 238.905 424.395 240.877L426.931 245.461L351.983 277.358L351.656 335.05L351.374 355.735C351.345 358.99 351.006 362.538 351.406 365.745C350.684 369.692 350.953 374.011 350.9 378.036L350.493 396.75C350.441 399.069 350.966 403.528 349.95 405.433L332.424 392.117L332.06 392.036L307.44 373.024C307.976 369.285 307.609 364.859 307.632 361.061L307.701 336.441L307.488 251.207C314.062 249.342 320.635 246.378 327.002 243.858L355 233.006L446.523 197.629L489 180.593C493.964 178.548 499.623 176.869 504.317 174.284Z"/>
	<path fill="#4C4359" d="M504.317 174.284C506.223 173.579 510.402 171.481 512.325 171.639C513.567 171.74 516.089 173.236 517.365 173.725L532.499 179.346L595.266 201.628C596.996 202.27 598.634 202.487 599.729 204.02L599.651 204.609L598.714 226.004L518.4 195.683C516.723 195.137 513.355 193.611 511.715 193.641C510.314 193.667 507.356 195.183 505.933 195.704L478.043 206.64L449.364 217.575C443.886 219.672 438.251 221.521 433.023 224.197L333.54 265.459L332.424 392.117L332.06 392.036L307.44 373.024C307.976 369.285 307.609 364.859 307.632 361.061L307.701 336.441L307.488 251.207C314.062 249.342 320.635 246.378 327.002 243.858L355 233.006L446.523 197.629L489 180.593C493.964 178.548 499.623 176.869 504.317 174.284Z"/>
	<defs>
		<linearGradient id="gradient_7" gradientUnits="userSpaceOnUse" x1="645.13708" y1="767.32184" x2="575.73492" y2="610.25745">
			<stop offset="0" stop-color="#13172E"/>
			<stop offset="1" stop-color="#3B3852"/>
		</linearGradient>
	</defs>
	<path fill="url(#gradient_7)" d="M649.945 576.253L690.189 576.332L690.244 600.468C691.366 593.182 690.517 584.673 690.501 577.248L713.755 576.745C713.747 578.945 713.538 581.334 713.878 583.5C714.634 588.325 713.427 593.821 713.967 598.824C713.399 600.457 713.926 603.887 713.802 605.75L711.839 643.472C698.319 663.973 684.96 684.838 669.532 703.984C661.542 713.9 652.867 723.231 644.067 732.424C614.376 763.437 580.457 791.087 542.939 812.069C534.363 816.865 525.686 821.695 516.636 825.533L517.067 694.372C523.429 689.227 530.915 685.374 537.729 680.871L610.457 636.237L630.897 624.98C635.47 622.515 641.211 619.996 645.094 616.527C645.936 615.775 649.778 579.728 649.922 576.781L649.945 576.253Z"/>
	<path fill="#EE9322" d="M570.774 681.332L570.9 754.458L549.084 771.25L548.079 771.156C547.062 763.955 547.891 755.506 547.897 748.137L547.948 697.306L570.774 681.332Z"/>
	<path fill="#020217" d="M606.107 653.25L606.872 653.528L607.08 726.874C598.968 734.077 590.61 741.819 581.401 747.574L580.716 672.358C582.737 669.863 586.638 667.718 589.271 665.788L606.107 653.25Z"/>
	<path fill="#EE9322" d="M605.459 655.428L605.449 725.371C605.31 727.015 585.42 742.548 582.334 745.236L582.152 673.176L605.459 655.428Z"/>
	<defs>
		<linearGradient id="gradient_8" gradientUnits="userSpaceOnUse" x1="642.22308" y1="811.84003" x2="383.67206" y2="470.47064">
			<stop offset="0" stop-color="#E7871C"/>
			<stop offset="1" stop-color="#EEAA34"/>
		</linearGradient>
	</defs>
	<path fill="url(#gradient_8)" d="M750.384 540.073L782.986 540.185L783.115 660.045C783.195 662.257 781.725 664.359 780.673 666.22L773.376 678.855C746.397 723.842 715.142 765.618 678.499 803.24C629.677 853.366 573.847 893.769 512.654 927.42C486.461 913.719 461.05 897.986 437.008 880.803C425.134 872.316 413.274 863.653 402.546 853.729L351.653 808.25C325.372 782.281 301.823 753.507 281.12 722.932L256.824 683.905L247.869 667.933C246.811 666.021 244.829 663.309 244.481 661.25C244.083 658.895 244.389 655.851 244.373 653.411L244.307 637.021L244.021 575.039L277.568 575.027L277.466 636.061L277.446 647.654C277.445 648.543 277.163 650.72 277.44 651.504C278.77 655.274 281.996 659.713 284.012 663.291C299.926 691.543 318.951 718.664 339.643 743.621C381.073 793.59 433.219 836.233 491.826 864.444L505.5 871.024C507.627 872.095 510.214 874.063 512.536 874.279C597.898 836.638 668.044 775.129 719.934 697.916C723.814 692.143 746.764 657.71 745.784 653.016C745.234 650.381 745.469 647.326 745.46 644.624L745.457 629.715L745.49 574.638L745.475 566.48L745.502 540.75L746.25 540.009L750.384 540.073Z"/>
	<defs>
		<linearGradient id="gradient_9" gradientUnits="userSpaceOnUse" x1="757.89044" y1="512.9234" x2="390.86349" y2="840.46051">
			<stop offset="0" stop-color="#8E330F"/>
			<stop offset="1" stop-color="#BA5512"/>
		</linearGradient>
	</defs>
	<path fill="url(#gradient_9)" d="M750.384 540.073L782.986 540.185L783.115 660.045C783.195 662.257 781.725 664.359 780.673 666.22L773.376 678.855C746.397 723.842 715.142 765.618 678.499 803.24C629.677 853.366 573.847 893.769 512.654 927.42C486.461 913.719 461.05 897.986 437.008 880.803C425.134 872.316 413.274 863.653 402.546 853.729L402.873 853.447C404.797 851.991 406.09 850.292 407.583 848.415C405.495 845.631 402.72 843.347 400.236 840.921L388.105 828.861C372.366 812.67 356.313 795.827 342.73 777.777C340.099 775.98 337.385 771.297 335.358 768.639L311.234 734.195C304.79 724.567 297.878 715.094 293.369 704.354L351.587 775.609C356.667 779.618 361.382 785.616 365.978 790.248L400.657 824.128C421.6 843.355 444.851 861.345 468.766 876.717L512.326 902.432C520.255 897.425 528.939 893.421 537 888.559L589.065 853.622C601.787 844.17 613.7 833.782 625.572 823.304C640.142 810.444 654.376 797.349 667.617 783.108C691.958 756.928 713.358 728.163 732.638 698.11C741.499 684.298 751.316 669.238 757.434 653.957L757.708 653.25C758.97 650.053 758.487 645.876 758.491 642.459L758.459 623.079L758.438 574.8L745.49 574.638L745.475 566.48L745.502 540.75L746.25 540.009L750.384 540.073Z"/>
	<path fill="#AA3419" d="M745.475 566.48L745.502 540.75L746.25 540.009L750.384 540.073L759.009 540.585L758.924 541.276L758.393 565.366C754.382 565.481 749.198 565.02 745.475 566.48Z"/>
	<path fill="#020217" d="M510.924 329.357C514.606 329.99 518.224 331.523 521.746 332.748L543.137 340.73C545.865 341.804 549.665 343.839 552.468 344.268L623.881 370.398L638.313 375.56C641.144 376.512 644.288 377.227 646.963 378.531L640.234 425.162C639.76 428.579 638.153 434.131 638.612 437.472L638.509 437.92L616.686 572.089L579.271 592.04C573.455 595.2 511.688 630.143 510.023 630.016C506.867 626.363 500.762 623.597 496.599 621.148L473.713 607.697L407.551 568.591C406.735 566.398 406.732 563.461 406.48 561.119L404.901 546.379L399.656 505.673L376.972 381.32L510.002 329.78L510.924 329.357Z"/>
	<defs>
		<linearGradient id="gradient_10" gradientUnits="userSpaceOnUse" x1="626.87061" y1="538.6554" x2="555.12213" y2="479.57245">
			<stop offset="0" stop-color="#23466D"/>
			<stop offset="1" stop-color="#3B6888"/>
		</linearGradient>
	</defs>
	<path fill="url(#gradient_10)" d="M593.343 520.522C596.451 516.462 598.421 510.994 600.49 506.319C616.323 470.538 621.922 432.107 630.274 394.195C630.864 391.519 631.471 385.654 633.582 384.306L635.488 385.25C635.619 390.393 634.084 396.274 633.351 401.4L626.612 445.284L607.108 565.38L520.513 612.431C517.392 614.531 514.038 616.633 510.5 617.934C509.612 617.452 509.449 617.321 508.866 616.569C509.494 612.023 509.044 606.865 509.07 602.248C509.682 598.796 509.426 594.782 509.461 591.264L509.524 570.742C511.919 572.143 519.329 571.134 522.143 570.738C538.876 568.381 555.422 561.893 568.678 551.25C572.216 548.409 576.24 543.29 580.426 541.724L593.343 520.522Z"/>
	<path fill="#121C3B" d="M580.426 541.724C568.392 561.307 553.775 578.202 532.156 587.267L523.597 590.378C523.166 590.516 520.971 591.044 520.752 591.271C520.651 591.375 519.953 610.698 520.224 611.814L520.513 612.431C517.392 614.531 514.038 616.633 510.5 617.934C509.612 617.452 509.449 617.321 508.866 616.569C509.494 612.023 509.044 606.865 509.07 602.248C509.682 598.796 509.426 594.782 509.461 591.264L509.524 570.742C511.919 572.143 519.329 571.134 522.143 570.738C538.876 568.381 555.422 561.893 568.678 551.25C572.216 548.409 576.24 543.29 580.426 541.724Z"/>
	<path fill="#121C3B" d="M510.069 340.117C512.073 339.9 513.504 340.429 515.377 341.055L581.697 365.483L620.431 379.447C624.622 380.988 629.701 382.172 633.582 384.306C631.471 385.654 630.864 391.519 630.274 394.195C621.922 432.107 616.323 470.538 600.49 506.319C598.421 510.994 596.451 516.462 593.343 520.522C593.781 515.401 595.664 510.341 596.724 505.282C601.3 483.448 597.936 459.681 585.487 440.914C580.552 433.475 574.147 425.336 567.317 419.616C556.332 410.418 542.604 404.835 528.75 401.745C524.385 400.771 520.033 400.643 515.57 400.665C514.135 400.673 512.321 400.497 510.994 401.012C511.032 404.04 511.257 407.188 510.679 410.175L510.589 410.595L510.104 364.785C510.522 362.803 510.15 359.818 510.15 357.734L510.069 340.117Z"/>
	<path fill="#A5AFCF" d="M529.115 369.896L548.211 377.276L547.426 386.473L528.223 379.547C527.885 376.629 528.772 372.86 529.115 369.896Z"/>
	<path fill="#A5AFCF" d="M561.098 381.282L581.112 388.878L580.124 399.496L559.881 391.64L561.098 381.282Z"/>
	<path fill="#A5AFCF" d="M593.657 393.474L613.83 401.749L612.712 411.65L592.925 404.614C592.24 403.687 593.536 395.318 593.657 393.474Z"/>
	<path fill="#5C9DE6" d="M510.589 410.595L510.679 410.175C511.257 407.188 511.032 404.04 510.994 401.012C512.321 400.497 514.135 400.673 515.57 400.665C520.033 400.643 524.385 400.771 528.75 401.745C542.604 404.835 556.332 410.418 567.317 419.616C574.147 425.336 580.552 433.475 585.487 440.914C597.936 459.681 601.3 483.448 596.724 505.282C595.664 510.341 593.781 515.401 593.343 520.522L580.426 541.724C576.24 543.29 572.216 548.409 568.678 551.25C555.422 561.893 538.876 568.381 522.143 570.738C519.329 571.134 511.919 572.143 509.524 570.742L509.29 570.042C510.256 567.065 509.397 562.873 509.901 559.603L509.988 559.085C509.219 558.522 508.441 558.38 507.529 558.103L510.032 558.04L509.99 538.952C512.274 539.029 514.352 538.888 516.609 538.539C515.257 538.406 513.862 538.57 512.5 538.512C512.247 538.501 510.601 538.37 510.453 538.25C510.413 538.217 510.343 536.905 510.338 536.75C510.156 531.39 510.726 526.008 510.47 520.626C510.433 519.839 510.558 517.742 510.25 517.065C510.028 516.576 509.122 515.814 508.732 515.383L502.261 521.363C496.27 515.787 490.581 509.964 485.188 503.808C482.842 501.13 480.129 498.414 478.47 495.25L478.93 493.849L491.035 482.417C496.487 475.161 504.062 468.66 510.46 462.191L509.985 461.503C511.122 453.256 510.174 443.766 509.917 435.436C511.045 433.514 510.615 431.304 510.611 429.094L510.441 413.611L510.818 413.482C510.565 412.52 510.606 411.584 510.589 410.595Z"/>
	<path fill="#060D2D" d="M510.589 410.595L510.679 410.175C511.257 407.188 511.032 404.04 510.994 401.012C512.321 400.497 514.135 400.673 515.57 400.665C520.033 400.643 524.385 400.771 528.75 401.745C542.604 404.835 556.332 410.418 567.317 419.616C574.147 425.336 580.552 433.475 585.487 440.914C597.936 459.681 601.3 483.448 596.724 505.282C595.664 510.341 593.781 515.401 593.343 520.522L580.426 541.724C576.24 543.29 572.216 548.409 568.678 551.25C555.422 561.893 538.876 568.381 522.143 570.738C519.329 571.134 511.919 572.143 509.524 570.742L509.29 570.042C510.256 567.065 509.397 562.873 509.901 559.603L509.988 559.085C509.219 558.522 508.441 558.38 507.529 558.103L510.032 558.04C527.88 558.12 545.451 552.456 559.092 540.71C573.605 528.214 582.353 510.298 583.709 491.21C585.046 472.392 577.776 452.328 565.335 438.25C555.261 426.851 540.682 418.21 525.75 415.1C520.843 414.078 515.81 413.758 510.818 413.482C510.565 412.52 510.606 411.584 510.589 410.595Z"/>
	<path fill="#121C3B" d="M509.917 435.436C524.086 435.16 537.923 439.518 548.29 449.463C556.295 457.141 560.891 466.261 563.318 476.975C564.768 483.376 564.524 491.105 563.097 497.5L562.917 498.343C559.842 512.298 550.909 523.323 539.002 530.897C532.782 534.854 524.088 538.743 516.609 538.539C515.257 538.406 513.862 538.57 512.5 538.512C512.247 538.501 510.601 538.37 510.453 538.25C510.413 538.217 510.343 536.905 510.338 536.75C510.156 531.39 510.726 526.008 510.47 520.626C510.433 519.839 510.558 517.742 510.25 517.065C510.028 516.576 509.122 515.814 508.732 515.383L502.261 521.363C496.27 515.787 490.581 509.964 485.188 503.808C482.842 501.13 480.129 498.414 478.47 495.25L478.93 493.849L491.035 482.417C496.487 475.161 504.062 468.66 510.46 462.191L509.985 461.503C511.122 453.256 510.174 443.766 509.917 435.436Z"/>
	<path fill="#FEFEFE" d="M510.46 462.191L523.704 451.878L533.544 461.823C537.855 465.847 544.215 470.708 547.109 475.823L508.732 515.383L502.261 521.363C496.27 515.787 490.581 509.964 485.188 503.808C482.842 501.13 480.129 498.414 478.47 495.25L478.93 493.849L491.035 482.417C496.487 475.161 504.062 468.66 510.46 462.191Z"/>
	<path fill="#3E6185" d="M510.46 462.191L523.704 451.878L533.544 461.823L501.808 494.787C500.427 493.628 499.382 491.913 498.242 490.509L491.035 482.417C496.487 475.161 504.062 468.66 510.46 462.191Z"/>
	<path fill="#498089" d="M510.069 340.117L510.15 357.734C510.15 359.818 510.522 362.803 510.104 364.785L510.589 410.595C510.606 411.584 510.565 412.52 510.818 413.482L510.441 413.611L510.611 429.094C510.615 431.304 511.045 433.514 509.917 435.436C510.174 443.766 511.122 453.256 509.985 461.503L510.46 462.191C504.062 468.66 496.487 475.161 491.035 482.417L478.93 493.849L478.47 495.25C480.129 498.414 482.842 501.13 485.188 503.808C490.581 509.964 496.27 515.787 502.261 521.363L508.732 515.383C509.122 515.814 510.028 516.576 510.25 517.065C510.558 517.742 510.433 519.839 510.47 520.626C510.726 526.008 510.156 531.39 510.338 536.75C510.343 536.905 510.413 538.217 510.453 538.25C510.601 538.37 512.247 538.501 512.5 538.512C513.862 538.57 515.257 538.406 516.609 538.539C514.352 538.888 512.274 539.029 509.99 538.952L510.032 558.04L507.529 558.103C508.441 558.38 509.219 558.522 509.988 559.085L509.901 559.603C509.397 562.873 510.256 567.065 509.29 570.042L509.524 570.742L509.461 591.264C509.426 594.782 509.682 598.796 509.07 602.248C509.044 606.865 509.494 612.023 508.866 616.569L416.193 562.409L388.01 387.965C389.708 386.595 392.809 385.757 394.886 384.93L411.987 378.235L510.069 340.117Z"/>
	<path fill="#FEFEFE" d="M492.661 369.25C493.505 369.068 493.076 369.025 493.933 369.5L495.458 381.094L475.75 388.093L475.25 388.242L474.509 387.75L472.761 376.608L492.661 369.25Z"/>
	<path fill="#FEFEFE" d="M427.454 394.75C428.181 394.851 427.79 394.728 428.576 395.25L430.189 405.702L408.586 414.537C407.485 410.913 407.141 406.723 406.357 402.974C407.819 401.564 411.442 400.882 413.491 400.149L427.454 394.75Z"/>
	<path fill="#FEFEFE" d="M460.187 381.25L461.209 381.126C462.538 384.606 462.39 389.415 462.591 393.11L441.595 401.541C440.271 397.829 439.917 393.171 439.236 389.283L460.187 381.25Z"/>
	<defs>
		<linearGradient id="gradient_11" gradientUnits="userSpaceOnUse" x1="457.35037" y1="569.44946" x2="493.22247" y2="397.70456">
			<stop offset="0" stop-color="#2D5764"/>
			<stop offset="1" stop-color="#39727B"/>
		</linearGradient>
	</defs>
	<path fill="url(#gradient_11)" d="M510.104 364.785L510.589 410.595C510.606 411.584 510.565 412.52 510.818 413.482L510.441 413.611C494.082 412.47 474.806 421.647 462.786 432.219C448.799 444.521 439.666 463.343 438.572 481.907C437.392 501.934 443.982 521.406 457.491 536.303C457.9 536.754 459.552 538.242 459.686 538.713C473.577 550.98 489.226 556.713 507.529 558.103C508.441 558.38 509.219 558.522 509.988 559.085L509.901 559.603C509.397 562.873 510.256 567.065 509.29 570.042L509.524 570.742L509.461 591.264C509.426 594.782 509.682 598.796 509.07 602.248L509.137 579.156L506.071 579.363C501.937 579.72 497.102 578.771 493.045 577.815C480.485 574.857 469.329 569.432 459.31 561.25C455.605 558.224 451.926 554.628 448.923 550.899C440.011 539.83 434.733 528.056 431.093 514.38L428.257 501.377C427.504 498.451 425.615 496.325 425.04 493.327L424.891 492.5C423.799 486.67 423.454 479.689 424.347 473.782C427.129 455.394 435.455 437.865 448.748 424.671C461.241 412.27 479.305 403.277 496.729 400.84C501.137 400.223 505.648 400.237 510.09 400.225L510.104 364.785Z"/>
	<defs>
		<linearGradient id="gradient_12" gradientUnits="userSpaceOnUse" x1="487.54858" y1="546.07526" x2="486.95032" y2="567.9657">
			<stop offset="0" stop-color="#001"/>
			<stop offset="1" stop-color="#020226"/>
		</linearGradient>
	</defs>
	<path fill="url(#gradient_12)" d="M459.686 538.713C473.577 550.98 489.226 556.713 507.529 558.103C508.441 558.38 509.219 558.522 509.988 559.085L509.901 559.603C509.397 562.873 510.256 567.065 509.29 570.042C497.053 567.855 485.211 563.134 475.184 555.745C470.481 552.28 466.575 547.967 462.805 543.537C461.494 541.998 460.002 540.737 459.686 538.713Z"/>
	<path fill="#7EBFF1" d="M459.686 538.713C459.552 538.242 457.9 536.754 457.491 536.303C443.982 521.406 437.392 501.934 438.572 481.907C439.666 463.343 448.799 444.521 462.786 432.219C474.806 421.647 494.082 412.47 510.441 413.611L510.611 429.094C510.615 431.304 511.045 433.514 509.917 435.436C510.174 443.766 511.122 453.256 509.985 461.503L510.46 462.191C504.062 468.66 496.487 475.161 491.035 482.417L478.93 493.849L478.47 495.25C480.129 498.414 482.842 501.13 485.188 503.808C490.581 509.964 496.27 515.787 502.261 521.363L508.732 515.383C509.122 515.814 510.028 516.576 510.25 517.065C510.558 517.742 510.433 519.839 510.47 520.626C510.726 526.008 510.156 531.39 510.338 536.75C510.343 536.905 510.413 538.217 510.453 538.25C510.601 538.37 512.247 538.501 512.5 538.512C513.862 538.57 515.257 538.406 516.609 538.539C514.352 538.888 512.274 539.029 509.99 538.952L510.032 558.04L507.529 558.103C489.226 556.713 473.577 550.98 459.686 538.713Z"/>
	<path fill="#0B3268" d="M509.99 538.952C496.547 537.645 485.077 533.989 475.188 524.432C465.921 515.477 460.147 501.767 459.972 488.901C459.783 475.064 464.807 460.609 474.589 450.635C483.753 441.292 496.854 435.641 509.917 435.436C510.174 443.766 511.122 453.256 509.985 461.503L510.46 462.191C504.062 468.66 496.487 475.161 491.035 482.417L478.93 493.849L478.47 495.25C480.129 498.414 482.842 501.13 485.188 503.808C490.581 509.964 496.27 515.787 502.261 521.363L508.732 515.383C509.122 515.814 510.028 516.576 510.25 517.065C510.558 517.742 510.433 519.839 510.47 520.626C510.726 526.008 510.156 531.39 510.338 536.75C510.343 536.905 510.413 538.217 510.453 538.25C510.601 538.37 512.247 538.501 512.5 538.512C513.862 538.57 515.257 538.406 516.609 538.539C514.352 538.888 512.274 539.029 509.99 538.952Z"/>
	<path fill="#205189" d="M478.93 493.849C479.366 487.216 479.073 481.531 482.032 475.285C487.542 463.66 497.771 457.219 509.602 453.104C509.565 455.435 509.127 458.632 509.777 460.852L509.985 461.503L510.46 462.191C504.062 468.66 496.487 475.161 491.035 482.417L478.93 493.849Z"/>
</svg>
